{"title":"Fish Tank.2009.SWESUB.DVDRip.XviD.-Zen_Bud","uid":5563550,"size":1474170674,"categoryP":"video","categoryS":"movies","magnet":"?xt=urn:btih:5c2ab52d1cfd0229c5e2b93c44f5160f14fefdaf&amp;dn=Fish+Tank.2009.SWESUB.DVDRip.XviD.-Zen_Bud&amp;tr=udp%3A%2F%2Ftracker.openbittorrent.com%3A80&amp;tr=udp%3A%2F%2Fopen.demonii.com%3A1337&amp;tr=udp%3A%2F%2Ftracker.coppersurfer.tk%3A6969&amp;tr=udp%3A%2F%2Fexodus.desync.com%3A6969","seeders":0,"leechers":1,"uploader":"Zen_Bud","files":-1,"time":1273913682,"description":"General\nComplete name                    : Fish Tank.avi\nFormat                           : AVI\nFile size                        : 1.37 GiB\nDuration                         : 1h 57mn\nOverall bit rate                 : 1 668 Kbps\n\nVideo\nID                               : 0\nFormat                           : MPEG-4 Visual\nCodec ID/Hint                    : XviD\nDuration                         : 1h 57mn\nBit rate                         : 1 527 Kbps\nWidth                            : 720 pixels\nHeight                           : 576 pixels\nDisplay aspect ratio             : 4:3\nResolution                       : 8 bits\nColorimetry                      : 4:2:0\nScan type                        : Progressive\nBits/(Pixel*Frame)               : 0.147\nStream size                      : 1.26 GiB (92%)\nWriting library                  : XviD 1.1.2 (UTC 2006-11-01)\n\nAudio\nID                               : 1\nFormat                           : MPEG Audio\nMode                             : Joint stereo\nCodec ID/Hint                    : MP3\nDuration                         : 1h 57mn\nBit rate                         : 128 Kbps\nChannel(s)                       : 2 channels\nSampling rate                    : 48.0 KHz\nStream size                      : 108 MiB (8%)\n\n\n","torrent":{"xt":"urn:btih:5c2ab52d1cfd0229c5e2b93c44f5160f14fefdaf","amp;dn":"Fish+Tank.2009.SWESUB.DVDRip.XviD.-Zen_Bud","amp;tr":["udp%3A%2F%2Ftracker.openbittorrent.com%3A80","udp%3A%2F%2Fopen.demonii.com%3A1337","udp%3A%2F%2Ftracker.coppersurfer.tk%3A6969","udp%3A%2F%2Fexodus.desync.com%3A6969"],"infoHash":"5c2ab52d1cfd0229c5e2b93c44f5160f14fefdaf","infoHashBuffer":{"type":"Buffer","data":[92,42,181,45,28,253,2,41,197,226,185,60,68,245,22,15,20,254,253,175]},"announce":[],"urlList":[]}}